<?xml version="1.0" encoding="UTF-8"?>
<svg version="1.1" xmlns="http://www.w3.org/2000/svg" width="87" height="87">
<path d="M0 0 C28.71 0 57.42 0 87 0 C87 28.71 87 57.42 87 87 C58.29 87 29.58 87 0 87 C0 58.29 0 29.58 0 0 Z " fill="#091407" transform="translate(0,0)"/>
<path d="M0 0 C2.64 0 5.28 0 8 0 C8.01030746 0.68682358 8.02061493 1.37364716 8.03123474 2.08128357 C8.13905595 9.20215857 8.25367283 16.32290074 8.37231445 23.44360352 C8.4157418 26.10438265 8.4574109 28.76519107 8.49731445 31.42602539 C8.55482872 35.24113815 8.61857668 39.05610242 8.68359375 42.87109375 C8.70030624 44.06899033 8.71701874 45.2668869 8.73423767 46.50108337 C8.75418289 47.6021492 8.77412811 48.70321503 8.79467773 49.83764648 C8.81022202 50.81249496 8.8257663 51.78734344 8.84178162 52.79173279 C8.75593055 54.97418568 8.75593055 54.97418568 10 56 C12.36398468 56.1007812 14.69811311 56.13973215 17.0625 56.1328125 C17.76898682 56.13376923 18.47547363 56.13472595 19.20336914 56.13571167 C20.69970793 56.13639333 22.19604967 56.13454005 23.69238281 56.13037109 C25.99030157 56.12502257 28.28802486 56.13031651 30.5859375 56.13671875 C32.03645877 56.13605797 33.48697991 56.1347768 34.9375 56.1328125 C35.6291626 56.13483673 36.3208252 56.13686096 37.03344727 56.13894653 C40.29735638 56.40230733 40.29735638 56.40230733 43 55 C43.12307311 53.28225833 43.17786558 51.55957261 43.20532227 49.83764648 C43.22526749 48.73658066 43.24521271 47.63551483 43.26576233 46.50108337 C43.28247482 45.3031868 43.29918732 44.10529022 43.31640625 42.87109375 C43.33718735 41.65172623 43.35796844 40.4323587 43.37937927 39.17604065 C43.44500428 35.26325355 43.50381972 31.35039683 43.5625 27.4375 C43.60567291 24.79231038 43.64928678 22.14712791 43.69335938 19.50195312 C43.8006988 13.00137664 43.90244067 6.50073021 44 0 C46.64 0 49.28 0 52 0 C52.09281004 7.34540978 52.1638202 14.69069248 52.20724869 22.03657055 C52.22809576 25.44784999 52.25635897 28.85872734 52.30175781 32.26977539 C52.35365959 36.19412369 52.37296922 40.11831096 52.390625 44.04296875 C52.41127014 45.26396774 52.43191528 46.48496674 52.45318604 47.7429657 C52.45348816 48.8837709 52.45379028 50.02457611 52.45410156 51.19995117 C52.46298401 52.20144699 52.47186646 53.20294281 52.48101807 54.23478699 C51.86730117 57.76284145 50.44473789 59.43471905 48 62 C44.65983017 63.67008491 40.9051685 63.20630649 37.23046875 63.23828125 C36.35731522 63.246353 35.48416168 63.25442474 34.58454895 63.26274109 C32.7343647 63.27658364 30.88415488 63.28730503 29.03393555 63.29516602 C26.20897803 63.3123692 23.38519379 63.35625166 20.56054688 63.40039062 C18.76302944 63.41051847 16.96550205 63.41903429 15.16796875 63.42578125 C14.32509811 63.44328934 13.48222748 63.46079742 12.61381531 63.47883606 C8.54271514 63.46383565 6.51237924 63.32364949 2.98950195 61.09838867 C-0.11774496 57.82108014 -0.12326392 55.96181971 -0.11352539 51.54052734 C-0.11344986 50.39949554 -0.11337433 49.25846375 -0.11329651 48.08285522 C-0.10813522 46.84637238 -0.10297394 45.60988953 -0.09765625 44.3359375 C-0.0962413 43.07359283 -0.09482635 41.81124817 -0.09336853 40.51065063 C-0.08871078 37.15361701 -0.07972408 33.796651 -0.06866455 30.43963623 C-0.0584377 27.01445094 -0.05386818 23.58925866 -0.04882812 20.1640625 C-0.03778238 13.44268957 -0.02103194 6.72134869 0 0 Z " fill="#2B58EA" transform="translate(23,18)"/>
<path d="M0 0 C1.134375 0.020625 2.26875 0.04125 3.4375 0.0625 C3.4375 0.7225 3.4375 1.3825 3.4375 2.0625 C13.3375 2.0625 23.2375 2.0625 33.4375 2.0625 C33.4375 4.7025 33.4375 7.3425 33.4375 10.0625 C10.9975 10.0625 -11.4425 10.0625 -34.5625 10.0625 C-34.5625 7.4225 -34.5625 4.7825 -34.5625 2.0625 C-33.65894775 2.03744385 -32.75539551 2.0123877 -31.82446289 1.98657227 C-28.4828572 1.89162683 -25.14143748 1.79238379 -21.80004883 1.69018555 C-20.3518576 1.6467837 -18.90361346 1.60511256 -17.45532227 1.56518555 C-15.37760441 1.50760938 -13.30015427 1.44387972 -11.22265625 1.37890625 C-9.97105713 1.34224854 -8.71945801 1.30559082 -7.42993164 1.26782227 C-3.80199734 1.00804425 -3.89249727 0.06828943 0 0 Z " fill="#2954DC" transform="translate(49.5625,5.9375)"/>
<path d="M0 0 C4.02550319 1.3418344 4.88285636 3.4227573 7 7 C7 7.66 7 8.32 7 9 C6.34 9 5.68 9 5 9 C5 22.86 5 36.72 5 51 C2.36 51 -0.28 51 -3 51 C-3 37.14 -3 23.28 -3 9 C-3.66 9 -4.32 9 -5 9 C-3.50163895 5.88801935 -1.80066242 2.9465385 0 0 Z " fill="#2A58E9" transform="translate(41,21)"/>
<path d="M0 0 C2.64 0 5.28 0 8 0 C8 13.86 8 27.72 8 42 C8.66 42.33 9.32 42.66 10 43 C8.35 45.31 6.7 47.62 5 50 C0.60841671 48.5361389 0.12052567 46.02168662 -2 42 C-1.34 42 -0.68 42 0 42 C0 28.14 0 14.28 0 0 Z " fill="#2B59EA" transform="translate(52,21)"/>
</svg>
